<svg xmlns="http://www.w3.org/2000/svg" version="1.1" xmlns:xlink="http://www.w3.org/1999/xlink" xmlns:svgjs="http://svgjs.dev/svgjs" width="1000" height="1000" viewBox="0 0 1000 1000"><rect width="1000" height="1000" fill="#ffffff"></rect><g transform="matrix(0.7,0,0,0.7,149.59779038701402,254.84866396761132)"><svg viewBox="0 0 352 247" data-background-color="#ffffff" preserveAspectRatio="xMidYMid meet" height="701" width="1000" xmlns="http://www.w3.org/2000/svg" xmlns:xlink="http://www.w3.org/1999/xlink"><g id="tight-bounds" transform="matrix(1,0,0,1,0.20225397681579693,-0.09999999999999432)"><svg viewBox="0 0 351.5954870453649 247.2" height="247.2" width="351.5954870453649"><g><svg viewBox="0 0 395.52 278.0824771717983" height="247.2" width="351.5954870453649"><g transform="matrix(1,0,0,1,0,204.28893859692408)"><svg viewBox="0 0 395.52 73.79353857487422" height="73.79353857487422" width="395.52"><g id="textblocktransform"><svg viewBox="0 0 395.52 73.79353857487422" height="73.79353857487422" width="395.52" id="textblock"><g><rect width="39.55199999999999" height="4.3337757226410165" y="64.43056260782683" fill="#000000" data-fill-palette-color="tertiary"></rect><rect width="39.55199999999999" height="4.3337757226410165" y="64.43056260782683" x="355.96799999999996" fill="#000000" data-fill-palette-color="tertiary"></rect></g><g><svg viewBox="0 0 395.52 48.056399738705764" height="48.056399738705764" width="395.52"><g transform="matrix(1,0,0,1,0,0)"><svg width="395.52" viewBox="0.92 -31.61 263.916483842528 32.07" height="48.056399738705764" data-palette-color="#729343"><path d="M4.71-30.11L14.31-3.33 14.31-3.33 23.68-30Q24.31-31.38 25.52-31.38L25.52-31.38Q26.21-31.38 26.67-31.03L26.67-31.03Q27.36-30.46 27.36-29.66L27.36-29.66 27.36-29.43Q27.36-29.31 27.24-29.08L27.24-29.08 17.41-2.3Q16.72 0 14.14 0L14.14 0Q11.84 0 11.03-2.3L11.03-2.3 1.03-28.97Q0.92-29.31 0.92-29.6 0.92-29.89 1.09-30.23 1.26-30.57 1.55-30.86L1.55-30.86Q2.18-31.38 2.87-31.38L2.87-31.38Q4.31-31.38 4.71-30.11L4.71-30.11ZM32.87-1.9L32.87-29.48Q32.87-30.69 34.02-31.21L34.02-31.21Q34.37-31.26 35-31.32 35.63-31.38 36.18-30.92 36.72-30.46 36.72-29.48L36.72-29.48 36.72-1.9Q36.72-0.52 35.51-0.11L35.51-0.11Q35.17 0 34.6 0 34.02 0 33.45-0.46 32.87-0.92 32.87-1.9L32.87-1.9ZM52.01-28.1L43.44-28.1Q42.58-28.1 42.18-28.62 41.78-29.14 41.78-29.74 41.78-30.34 42.18-30.86 42.58-31.38 43.44-31.38L43.44-31.38 64.42-31.38Q65.22-31.38 65.63-30.86 66.03-30.34 66.03-29.74 66.03-29.14 65.6-28.62 65.17-28.1 64.42-28.1L64.42-28.1 55.91-28.1 55.91-1.9Q55.91-0.57 54.77-0.11L54.77-0.11Q54.42 0 53.85 0 53.27 0 52.64-0.46 52.01-0.92 52.01-1.9L52.01-1.9 52.01-28.1ZM85.39-27.93L95.97-2.41Q96.03-2.07 96.03-1.72 96.03-1.38 95.85-1.03 95.68-0.69 95.39-0.52L95.39-0.52Q94.82 0 94.13 0L94.13 0Q92.75 0 92.29-1.21L92.29-1.21 89.48-8.16 73.96-8.16 71.2-1.21Q70.8 0 69.59 0 68.38 0 67.75-1.03L67.75-1.03Q67.58-1.38 67.58-1.67 67.58-1.95 67.75-2.41L67.75-2.41 78.15-27.93Q79.3-30.8 80.8-31.21L80.8-31.21Q81.2-31.26 81.83-31.38L81.83-31.38Q82.98-31.38 83.56-30.86L83.56-30.86Q84.48-30.17 85.39-27.93L85.39-27.93ZM81.72-28.1L75.05-11.21 88.44-11.21 81.72-28.1ZM119.47 0L103.38 0Q102.06 0 101.54-1.15L101.54-1.15Q101.37-1.49 101.37-1.9L101.37-1.9 101.37-29.48Q101.37-30.8 102.58-31.21L102.58-31.21Q102.92-31.26 103.5-31.32 104.07-31.38 104.65-30.92 105.22-30.46 105.22-29.48L105.22-29.48 105.22-3.22 119.47-3.22Q120.33-3.22 120.71-2.73 121.08-2.24 121.08-1.64 121.08-1.03 120.68-0.52 120.28 0 119.47 0L119.47 0ZM133.03-28.1L124.47-28.1Q123.61-28.1 123.21-28.62 122.8-29.14 122.8-29.74 122.8-30.34 123.21-30.86 123.61-31.38 124.47-31.38L124.47-31.38 145.45-31.38Q146.25-31.38 146.65-30.86 147.06-30.34 147.06-29.74 147.06-29.14 146.63-28.62 146.19-28.1 145.45-28.1L145.45-28.1 136.94-28.1 136.94-1.9Q136.94-0.57 135.79-0.11L135.79-0.11Q135.45 0 134.87 0 134.3 0 133.67-0.46 133.03-0.92 133.03-1.9L133.03-1.9 133.03-28.1ZM151.94-1.9L151.94-29.43Q151.94-30.57 153.2-31.21L153.2-31.21Q153.55-31.38 153.95-31.38L153.95-31.38 163.32-31.38Q170.9-31.38 173.55-27.36L173.55-27.36Q174.47-25.69 174.47-23.13 174.47-20.57 172.8-18.79 171.13-17.01 168.03-16.38L168.03-16.38 168.03-16.21Q171.02-15.69 172.28-13.97L172.28-13.97Q173.26-12.53 173.52-10.11 173.78-7.7 173.95-6.32L173.95-6.32Q174.12-4.31 174.3-1.9L174.3-1.9Q174.3-0.92 173.69-0.46 173.09 0 172.34 0 171.59 0 171.02-0.43 170.44-0.86 170.33-1.72L170.33-1.72Q170.1-4.37 169.93-6.41 169.76-8.45 169.53-9.86 169.3-11.26 168.89-12.18 168.49-13.1 167.8-13.62L167.8-13.62Q166.65-14.48 163.26-14.6L163.26-14.6 155.85-14.6 155.85-1.9Q155.85-0.52 154.64-0.11L154.64-0.11Q154.3 0 153.75 0 153.2 0 152.57-0.46 151.94-0.92 151.94-1.9L151.94-1.9ZM155.85-17.59L161.59-17.59Q167.05-17.59 168.95-19.31L168.95-19.31Q170.33-20.52 170.44-22.93L170.44-22.93Q170.44-26.32 167.92-27.41L167.92-27.41Q166.54-28.1 165.16-28.19 163.78-28.28 162.97-28.28L162.97-28.28 155.85-28.28 155.85-17.59ZM196.76-27.93L207.34-2.41Q207.4-2.07 207.4-1.72 207.4-1.38 207.22-1.03 207.05-0.69 206.76-0.52L206.76-0.52Q206.19 0 205.5 0L205.5 0Q204.12 0 203.66-1.21L203.66-1.21 200.84-8.16 185.33-8.16 182.57-1.21Q182.17 0 180.96 0 179.75 0 179.12-1.03L179.12-1.03Q178.95-1.38 178.95-1.67 178.95-1.95 179.12-2.41L179.12-2.41 189.52-27.93Q190.67-30.8 192.17-31.21L192.17-31.21Q192.57-31.26 193.2-31.38L193.2-31.38Q194.35-31.38 194.93-30.86L194.93-30.86Q195.84-30.17 196.76-27.93L196.76-27.93ZM193.09-28.1L186.42-11.21 199.81-11.21 193.09-28.1ZM211.01-15.52L211.01-15.52Q211.01-18.51 211.88-21.55 212.74-24.6 214.52-26.78L214.52-26.78Q218.31-31.61 225.32-31.61L225.32-31.61Q229.35-31.61 233.14-29.83L233.14-29.83Q234.12-29.43 234.12-28.51L234.12-28.51Q234.12-26.78 232.74-26.72L232.74-26.72Q232.45-26.72 232.22-26.78L232.22-26.78Q228.26-28.16 225.93-28.16 223.6-28.16 222.05-27.64 220.5-27.13 219.35-26.21 218.2-25.29 217.39-24.08 216.59-22.87 216.13-21.38L216.13-21.38Q215.15-18.62 215.15-15.52L215.15-15.52Q215.15-10.46 217.39-7.01L217.39-7.01Q220.04-2.93 225.55-2.93L225.55-2.93Q229.35-2.93 232.8-4.94L232.8-4.94Q233.26-5.06 233.69-5.06 234.12-5.06 234.49-4.66 234.87-4.25 234.87-3.62 234.87-2.99 234.41-2.44 233.95-1.9 233.17-1.47 232.39-1.03 231.45-0.69 230.5-0.34 229.46-0.11L229.46-0.11Q227.28 0.46 225.32 0.46L225.32 0.46Q218.26 0.46 214.52-4.31L214.52-4.31Q211.01-8.62 211.01-15.52ZM247.16-16.09L247.16-1.84Q247.16-0.92 246.7-0.57L246.7-0.57Q246.01 0 245.15 0L245.15 0Q243.94 0 243.48-1.03L243.48-1.03Q243.37-1.38 243.37-1.84L243.37-1.84 243.37-29.48Q243.37-30.46 243.94-30.92 244.52-31.38 245.03-31.38 245.55-31.38 245.9-31.26 246.24-31.15 246.53-30.86L246.53-30.86Q247.16-30.34 247.16-29.48L247.16-29.48 247.16-17.47 260.38-30.69Q261.01-31.38 261.73-31.38 262.45-31.38 262.97-30.92 263.48-30.46 263.48-29.8 263.48-29.14 263.14-28.62L263.14-28.62 251.3-17.13 264.29-2.99Q265.44-1.55 264.17-0.52L264.17-0.52Q263.48 0 262.79 0L262.79 0Q261.87 0 261.36-0.8L261.36-0.8 247.16-16.09Z" opacity="1" transform="matrix(1,0,0,1,0,0)" fill="#000000" class="wordmark-text-0" data-fill-palette-color="primary" id="text-0"></path></svg></g></svg></g><g transform="matrix(1,0,0,1,39.55199999999999,59.40136236342047)"><svg viewBox="0 0 316.416 14.392176211453746" height="14.392176211453746" width="316.416"><g transform="matrix(1,0,0,1,8,0)"><svg width="300.416" viewBox="1.95 -38.6 1089.5 52.2" height="14.392176211453746" data-palette-color="#729343"><path d="M1.95-34.75L26.2-34.75 26.2-30.1 16.95-30.1 16.95 0 11.25 0 11.25-30.1 1.95-30.1 1.95-34.75ZM37.65-23.55Q38.9-25.65 40.97-26.83 43.05-28 45.9-28L45.9-28 45.9-22.1 44.45-22.1Q41.1-22.1 39.37-20.4 37.65-18.7 37.65-14.5L37.65-14.5 37.65 0 31.95 0 31.95-27.55 37.65-27.55 37.65-23.55ZM49.25-13.9Q49.25-18.05 50.97-21.25 52.7-24.45 55.67-26.23 58.65-28 62.25-28L62.25-28Q65.5-28 67.92-26.73 70.35-25.45 71.8-23.55L71.8-23.55 71.8-27.55 77.55-27.55 77.55 0 71.8 0 71.8-4.1Q70.35-2.15 67.85-0.85 65.35 0.45 62.15 0.45L62.15 0.45Q58.6 0.45 55.65-1.38 52.7-3.2 50.97-6.48 49.25-9.75 49.25-13.9L49.25-13.9ZM71.8-13.8Q71.8-16.65 70.62-18.75 69.45-20.85 67.55-21.95 65.65-23.05 63.45-23.05L63.45-23.05Q61.25-23.05 59.35-21.98 57.45-20.9 56.27-18.82 55.1-16.75 55.1-13.9L55.1-13.9Q55.1-11.05 56.27-8.9 57.45-6.75 59.37-5.63 61.3-4.5 63.45-4.5L63.45-4.5Q65.65-4.5 67.55-5.6 69.45-6.7 70.62-8.83 71.8-10.95 71.8-13.8L71.8-13.8ZM83.14-13.8Q83.14-18.05 84.87-21.28 86.59-24.5 89.64-26.25 92.69-28 96.64-28L96.64-28Q101.64-28 104.92-25.63 108.19-23.25 109.34-18.85L109.34-18.85 103.19-18.85Q102.44-20.9 100.79-22.05 99.14-23.2 96.64-23.2L96.64-23.2Q93.14-23.2 91.07-20.73 88.99-18.25 88.99-13.8L88.99-13.8Q88.99-9.35 91.07-6.85 93.14-4.35 96.64-4.35L96.64-4.35Q101.59-4.35 103.19-8.7L103.19-8.7 109.34-8.7Q108.14-4.5 104.84-2.02 101.54 0.45 96.64 0.45L96.64 0.45Q92.69 0.45 89.64-1.33 86.59-3.1 84.87-6.33 83.14-9.55 83.14-13.8L83.14-13.8ZM138.64-27.55L125.94-13.75 138.64 0 130.94 0 120.74-11.85 120.74 0 115.04 0 115.04-37 120.74-37 120.74-15.5 130.74-27.55 138.64-27.55ZM145.64-31.2Q144.09-31.2 143.04-32.25 141.99-33.3 141.99-34.85L141.99-34.85Q141.99-36.4 143.04-37.45 144.09-38.5 145.64-38.5L145.64-38.5Q147.14-38.5 148.19-37.45 149.24-36.4 149.24-34.85L149.24-34.85Q149.24-33.3 148.19-32.25 147.14-31.2 145.64-31.2L145.64-31.2ZM142.74-27.55L148.44-27.55 148.44 0 142.74 0 142.74-27.55ZM169.84-28Q173.09-28 175.66-26.65 178.24-25.3 179.69-22.65 181.13-20 181.13-16.25L181.13-16.25 181.13 0 175.49 0 175.49-15.4Q175.49-19.1 173.63-21.08 171.78-23.05 168.59-23.05L168.59-23.05Q165.38-23.05 163.51-21.08 161.63-19.1 161.63-15.4L161.63-15.4 161.63 0 155.94 0 155.94-27.55 161.63-27.55 161.63-24.4Q163.03-26.1 165.21-27.05 167.38-28 169.84-28L169.84-28ZM199.48-28Q202.68-28 205.16-26.73 207.63-25.45 209.03-23.55L209.03-23.55 209.03-27.55 214.78-27.55 214.78 0.45Q214.78 4.25 213.18 7.23 211.58 10.2 208.56 11.9 205.53 13.6 201.33 13.6L201.33 13.6Q195.73 13.6 192.03 10.98 188.33 8.35 187.83 3.85L187.83 3.85 193.48 3.85Q194.13 6 196.26 7.33 198.38 8.65 201.33 8.65L201.33 8.65Q204.78 8.65 206.91 6.55 209.03 4.45 209.03 0.45L209.03 0.45 209.03-4.15Q207.58-2.2 205.11-0.88 202.63 0.45 199.48 0.45L199.48 0.45Q195.88 0.45 192.91-1.38 189.93-3.2 188.21-6.48 186.48-9.75 186.48-13.9L186.48-13.9Q186.48-18.05 188.21-21.25 189.93-24.45 192.91-26.23 195.88-28 199.48-28L199.48-28ZM209.03-13.8Q209.03-16.65 207.86-18.75 206.68-20.85 204.78-21.95 202.88-23.05 200.68-23.05L200.68-23.05Q198.48-23.05 196.58-21.98 194.68-20.9 193.51-18.82 192.33-16.75 192.33-13.9L192.33-13.9Q192.33-11.05 193.51-8.9 194.68-6.75 196.61-5.63 198.53-4.5 200.68-4.5L200.68-4.5Q202.88-4.5 204.78-5.6 206.68-6.7 207.86-8.83 209.03-10.95 209.03-13.8L209.03-13.8ZM274.43-34.75L280.53-34.75 270.23 0 263.78 0 256.48-26.3 248.73 0 242.33 0.05 232.48-34.75 238.53-34.75 245.73-6.45 253.53-34.75 259.93-34.75 267.18-6.6 274.43-34.75ZM310.48-14.45Q310.48-12.9 310.28-11.65L310.28-11.65 289.23-11.65Q289.48-8.35 291.68-6.35 293.88-4.35 297.08-4.35L297.08-4.35Q301.68-4.35 303.58-8.2L303.58-8.2 309.73-8.2Q308.48-4.4 305.2-1.98 301.93 0.45 297.08 0.45L297.08 0.45Q293.13 0.45 290-1.33 286.88-3.1 285.1-6.33 283.33-9.55 283.33-13.8L283.33-13.8Q283.33-18.05 285.05-21.28 286.78-24.5 289.9-26.25 293.03-28 297.08-28L297.08-28Q300.98-28 304.03-26.3 307.08-24.6 308.78-21.53 310.48-18.45 310.48-14.45L310.48-14.45ZM289.28-16.25L304.53-16.25Q304.48-19.4 302.28-21.3 300.08-23.2 296.83-23.2L296.83-23.2Q293.88-23.2 291.78-21.33 289.68-19.45 289.28-16.25L289.28-16.25ZM316.07-37L321.77-37 321.77 0 316.07 0 316.07-37ZM329.27-37L334.97-37 334.97 0 329.27 0 329.27-37ZM356.37-28Q359.62-28 362.19-26.65 364.77-25.3 366.22-22.65 367.67-20 367.67-16.25L367.67-16.25 367.67 0 362.02 0 362.02-15.4Q362.02-19.1 360.17-21.08 358.32-23.05 355.12-23.05L355.12-23.05Q351.92-23.05 350.04-21.08 348.17-19.1 348.17-15.4L348.17-15.4 348.17 0 342.47 0 342.47-27.55 348.17-27.55 348.17-24.4Q349.57-26.1 351.74-27.05 353.92-28 356.37-28L356.37-28ZM400.17-14.45Q400.17-12.9 399.97-11.65L399.97-11.65 378.92-11.65Q379.17-8.35 381.37-6.35 383.56-4.35 386.77-4.35L386.77-4.35Q391.37-4.35 393.27-8.2L393.27-8.2 399.42-8.2Q398.17-4.4 394.89-1.98 391.62 0.45 386.77 0.45L386.77 0.45Q382.81 0.45 379.69-1.33 376.56-3.1 374.79-6.33 373.02-9.55 373.02-13.8L373.02-13.8Q373.02-18.05 374.74-21.28 376.47-24.5 379.59-26.25 382.72-28 386.77-28L386.77-28Q390.67-28 393.72-26.3 396.77-24.6 398.47-21.53 400.17-18.45 400.17-14.45L400.17-14.45ZM378.97-16.25L394.22-16.25Q394.17-19.4 391.97-21.3 389.77-23.2 386.52-23.2L386.52-23.2Q383.56-23.2 381.47-21.33 379.37-19.45 378.97-16.25L378.97-16.25ZM415.76 0.45Q412.51 0.45 409.94-0.73 407.36-1.9 405.86-3.93 404.36-5.95 404.26-8.45L404.26-8.45 410.16-8.45Q410.31-6.7 411.84-5.53 413.36-4.35 415.66-4.35L415.66-4.35Q418.06-4.35 419.39-5.28 420.71-6.2 420.71-7.65L420.71-7.65Q420.71-9.2 419.24-9.95 417.76-10.7 414.56-11.6L414.56-11.6Q411.46-12.45 409.51-13.25 407.56-14.05 406.14-15.7 404.71-17.35 404.71-20.05L404.71-20.05Q404.71-22.25 406.01-24.08 407.31-25.9 409.74-26.95 412.16-28 415.31-28L415.31-28Q420.01-28 422.89-25.63 425.76-23.25 425.96-19.15L425.96-19.15 420.26-19.15Q420.11-21 418.76-22.1 417.41-23.2 415.11-23.2L415.11-23.2Q412.86-23.2 411.66-22.35 410.46-21.5 410.46-20.1L410.46-20.1Q410.46-19 411.26-18.25 412.06-17.5 413.21-17.07 414.36-16.65 416.61-16L416.61-16Q419.61-15.2 421.54-14.38 423.46-13.55 424.86-11.95 426.26-10.35 426.31-7.7L426.31-7.7Q426.31-5.35 425.01-3.5 423.71-1.65 421.34-0.6 418.96 0.45 415.76 0.45L415.76 0.45ZM442.46 0.45Q439.21 0.45 436.64-0.73 434.06-1.9 432.56-3.93 431.06-5.95 430.96-8.45L430.96-8.45 436.86-8.45Q437.01-6.7 438.54-5.53 440.06-4.35 442.36-4.35L442.36-4.35Q444.76-4.35 446.09-5.28 447.41-6.2 447.41-7.65L447.41-7.65Q447.41-9.2 445.94-9.95 444.46-10.7 441.26-11.6L441.26-11.6Q438.16-12.45 436.21-13.25 434.26-14.05 432.84-15.7 431.41-17.35 431.41-20.05L431.41-20.05Q431.41-22.25 432.71-24.08 434.01-25.9 436.44-26.95 438.86-28 442.01-28L442.01-28Q446.71-28 449.59-25.63 452.46-23.25 452.66-19.15L452.66-19.15 446.96-19.15Q446.81-21 445.46-22.1 444.11-23.2 441.81-23.2L441.81-23.2Q439.56-23.2 438.36-22.35 437.16-21.5 437.16-20.1L437.16-20.1Q437.16-19 437.96-18.25 438.76-17.5 439.91-17.07 441.06-16.65 443.31-16L443.31-16Q446.31-15.2 448.24-14.38 450.16-13.55 451.56-11.95 452.96-10.35 453.01-7.7L453.01-7.7Q453.01-5.35 451.71-3.5 450.41-1.65 448.04-0.6 445.66 0.45 442.46 0.45L442.46 0.45ZM483.71-27.55L483.71-22.9 478.61-22.9 478.61 0 472.86 0 472.86-22.9 469.61-22.9 469.61-27.55 472.86-27.55 472.86-29.5Q472.86-34.25 475.38-36.43 477.91-38.6 483.31-38.6L483.31-38.6 483.31-33.85Q480.71-33.85 479.66-32.88 478.61-31.9 478.61-29.5L478.61-29.5 478.61-27.55 483.71-27.55ZM500.7 0.45Q496.8 0.45 493.65-1.33 490.5-3.1 488.7-6.33 486.9-9.55 486.9-13.8L486.9-13.8Q486.9-18 488.75-21.25 490.6-24.5 493.8-26.25 497-28 500.95-28L500.95-28Q504.9-28 508.1-26.25 511.3-24.5 513.15-21.25 515-18 515-13.8L515-13.8Q515-9.6 513.1-6.35 511.2-3.1 507.93-1.33 504.65 0.45 500.7 0.45L500.7 0.45ZM500.7-4.5Q502.9-4.5 504.83-5.55 506.75-6.6 507.95-8.7 509.15-10.8 509.15-13.8L509.15-13.8Q509.15-16.8 508-18.88 506.85-20.95 504.95-22 503.05-23.05 500.85-23.05L500.85-23.05Q498.65-23.05 496.78-22 494.9-20.95 493.8-18.88 492.7-16.8 492.7-13.8L492.7-13.8Q492.7-9.35 494.98-6.93 497.25-4.5 500.7-4.5L500.7-4.5ZM526.35-23.55Q527.6-25.65 529.67-26.83 531.75-28 534.6-28L534.6-28 534.6-22.1 533.15-22.1Q529.8-22.1 528.07-20.4 526.35-18.7 526.35-14.5L526.35-14.5 526.35 0 520.65 0 520.65-27.55 526.35-27.55 526.35-23.55ZM550.94-13.9Q550.94-18.05 552.67-21.25 554.39-24.45 557.37-26.23 560.34-28 563.94-28L563.94-28Q567.19-28 569.62-26.73 572.04-25.45 573.49-23.55L573.49-23.55 573.49-27.55 579.24-27.55 579.24 0 573.49 0 573.49-4.1Q572.04-2.15 569.54-0.85 567.04 0.45 563.84 0.45L563.84 0.45Q560.29 0.45 557.34-1.38 554.39-3.2 552.67-6.48 550.94-9.75 550.94-13.9L550.94-13.9ZM573.49-13.8Q573.49-16.65 572.32-18.75 571.14-20.85 569.24-21.95 567.34-23.05 565.14-23.05L565.14-23.05Q562.94-23.05 561.04-21.98 559.14-20.9 557.97-18.82 556.79-16.75 556.79-13.9L556.79-13.9Q556.79-11.05 557.97-8.9 559.14-6.75 561.07-5.63 562.99-4.5 565.14-4.5L565.14-4.5Q567.34-4.5 569.24-5.6 571.14-6.7 572.32-8.83 573.49-10.95 573.49-13.8L573.49-13.8ZM621.79-34.75L627.49-34.75 627.49 0 621.79 0 621.79-15.2 605.44-15.2 605.44 0 599.74 0 599.74-34.75 605.44-34.75 605.44-19.85 621.79-19.85 621.79-34.75ZM660.24-14.45Q660.24-12.9 660.04-11.65L660.04-11.65 638.99-11.65Q639.24-8.35 641.44-6.35 643.64-4.35 646.84-4.35L646.84-4.35Q651.44-4.35 653.34-8.2L653.34-8.2 659.49-8.2Q658.24-4.4 654.96-1.98 651.69 0.45 646.84 0.45L646.84 0.45Q642.89 0.45 639.76-1.33 636.64-3.1 634.86-6.33 633.09-9.55 633.09-13.8L633.09-13.8Q633.09-18.05 634.81-21.28 636.54-24.5 639.66-26.25 642.79-28 646.84-28L646.84-28Q650.74-28 653.79-26.3 656.84-24.6 658.54-21.53 660.24-18.45 660.24-14.45L660.24-14.45ZM639.04-16.25L654.29-16.25Q654.24-19.4 652.04-21.3 649.84-23.2 646.59-23.2L646.59-23.2Q643.64-23.2 641.54-21.33 639.44-19.45 639.04-16.25L639.04-16.25ZM663.93-13.9Q663.93-18.05 665.66-21.25 667.38-24.45 670.36-26.23 673.33-28 676.93-28L676.93-28Q680.18-28 682.61-26.73 685.03-25.45 686.48-23.55L686.48-23.55 686.48-27.55 692.23-27.55 692.23 0 686.48 0 686.48-4.1Q685.03-2.15 682.53-0.85 680.03 0.45 676.83 0.45L676.83 0.45Q673.28 0.45 670.33-1.38 667.38-3.2 665.66-6.48 663.93-9.75 663.93-13.9L663.93-13.9ZM686.48-13.8Q686.48-16.65 685.31-18.75 684.13-20.85 682.23-21.95 680.33-23.05 678.13-23.05L678.13-23.05Q675.93-23.05 674.03-21.98 672.13-20.9 670.96-18.82 669.78-16.75 669.78-13.9L669.78-13.9Q669.78-11.05 670.96-8.9 672.13-6.75 674.06-5.63 675.98-4.5 678.13-4.5L678.13-4.5Q680.33-4.5 682.23-5.6 684.13-6.7 685.31-8.83 686.48-10.95 686.48-13.8L686.48-13.8ZM699.73-37L705.43-37 705.43 0 699.73 0 699.73-37ZM726.28-22.9L719.58-22.9 719.58-7.65Q719.58-6.1 720.3-5.43 721.03-4.75 722.78-4.75L722.78-4.75 726.28-4.75 726.28 0 721.78 0Q717.93 0 715.88-1.8 713.83-3.6 713.83-7.65L713.83-7.65 713.83-22.9 710.58-22.9 710.58-27.55 713.83-27.55 713.83-34.4 719.58-34.4 719.58-27.55 726.28-27.55 726.28-22.9ZM745.78-28Q748.93-28 751.4-26.65 753.88-25.3 755.3-22.65 756.73-20 756.73-16.25L756.73-16.25 756.73 0 751.08 0 751.08-15.4Q751.08-19.1 749.23-21.08 747.38-23.05 744.18-23.05L744.18-23.05Q740.98-23.05 739.1-21.08 737.23-19.1 737.23-15.4L737.23-15.4 737.23 0 731.53 0 731.53-37 737.23-37 737.23-24.35Q738.68-26.1 740.9-27.05 743.13-28 745.78-28L745.78-28ZM766.87-31.2Q765.32-31.2 764.27-32.25 763.22-33.3 763.22-34.85L763.22-34.85Q763.22-36.4 764.27-37.45 765.32-38.5 766.87-38.5L766.87-38.5Q768.37-38.5 769.42-37.45 770.47-36.4 770.47-34.85L770.47-34.85Q770.47-33.3 769.42-32.25 768.37-31.2 766.87-31.2L766.87-31.2ZM763.97-27.55L769.67-27.55 769.67 0 763.97 0 763.97-27.55ZM802.42-14.45Q802.42-12.9 802.22-11.65L802.22-11.65 781.17-11.65Q781.42-8.35 783.62-6.35 785.82-4.35 789.02-4.35L789.02-4.35Q793.62-4.35 795.52-8.2L795.52-8.2 801.67-8.2Q800.42-4.4 797.15-1.98 793.87 0.45 789.02 0.45L789.02 0.45Q785.07 0.45 781.95-1.33 778.82-3.1 777.05-6.33 775.27-9.55 775.27-13.8L775.27-13.8Q775.27-18.05 777-21.28 778.72-24.5 781.85-26.25 784.97-28 789.02-28L789.02-28Q792.92-28 795.97-26.3 799.02-24.6 800.72-21.53 802.42-18.45 802.42-14.45L802.42-14.45ZM781.22-16.25L796.47-16.25Q796.42-19.4 794.22-21.3 792.02-23.2 788.77-23.2L788.77-23.2Q785.82-23.2 783.72-21.33 781.62-19.45 781.22-16.25L781.22-16.25ZM813.72-23.55Q814.97-25.65 817.04-26.83 819.12-28 821.97-28L821.97-28 821.97-22.1 820.52-22.1Q817.17-22.1 815.44-20.4 813.72-18.7 813.72-14.5L813.72-14.5 813.72 0 808.02 0 808.02-27.55 813.72-27.55 813.72-23.55ZM838.41-34.75L862.66-34.75 862.66-30.1 853.41-30.1 853.41 0 847.71 0 847.71-30.1 838.41-30.1 838.41-34.75ZM880.36 0.45Q876.46 0.45 873.31-1.33 870.16-3.1 868.36-6.33 866.56-9.55 866.56-13.8L866.56-13.8Q866.56-18 868.41-21.25 870.26-24.5 873.46-26.25 876.66-28 880.61-28L880.61-28Q884.56-28 887.76-26.25 890.96-24.5 892.81-21.25 894.66-18 894.66-13.8L894.66-13.8Q894.66-9.6 892.76-6.35 890.86-3.1 887.59-1.33 884.31 0.45 880.36 0.45L880.36 0.45ZM880.36-4.5Q882.56-4.5 884.49-5.55 886.41-6.6 887.61-8.7 888.81-10.8 888.81-13.8L888.81-13.8Q888.81-16.8 887.66-18.88 886.51-20.95 884.61-22 882.71-23.05 880.51-23.05L880.51-23.05Q878.31-23.05 876.44-22 874.56-20.95 873.46-18.88 872.36-16.8 872.36-13.8L872.36-13.8Q872.36-9.35 874.64-6.93 876.91-4.5 880.36-4.5L880.36-4.5ZM933.66-28Q936.91-28 939.48-26.65 942.06-25.3 943.53-22.65 945.01-20 945.01-16.25L945.01-16.25 945.01 0 939.36 0 939.36-15.4Q939.36-19.1 937.51-21.08 935.66-23.05 932.46-23.05L932.46-23.05Q929.26-23.05 927.38-21.08 925.51-19.1 925.51-15.4L925.51-15.4 925.51 0 919.86 0 919.86-15.4Q919.86-19.1 918.01-21.08 916.16-23.05 912.96-23.05L912.96-23.05Q909.76-23.05 907.88-21.08 906.01-19.1 906.01-15.4L906.01-15.4 906.01 0 900.31 0 900.31-27.55 906.01-27.55 906.01-24.4Q907.41-26.1 909.56-27.05 911.71-28 914.16-28L914.16-28Q917.46-28 920.06-26.6 922.66-25.2 924.06-22.55L924.06-22.55Q925.31-25.05 927.96-26.53 930.61-28 933.66-28L933.66-28ZM964.21 0.45Q960.31 0.45 957.16-1.33 954.01-3.1 952.21-6.33 950.41-9.55 950.41-13.8L950.41-13.8Q950.41-18 952.26-21.25 954.11-24.5 957.31-26.25 960.51-28 964.46-28L964.46-28Q968.41-28 971.61-26.25 974.81-24.5 976.66-21.25 978.51-18 978.51-13.8L978.51-13.8Q978.51-9.6 976.61-6.35 974.71-3.1 971.43-1.33 968.16 0.45 964.21 0.45L964.21 0.45ZM964.21-4.5Q966.41-4.5 968.33-5.55 970.26-6.6 971.46-8.7 972.66-10.8 972.66-13.8L972.66-13.8Q972.66-16.8 971.51-18.88 970.36-20.95 968.46-22 966.56-23.05 964.36-23.05L964.36-23.05Q962.16-23.05 960.28-22 958.41-20.95 957.31-18.88 956.21-16.8 956.21-13.8L956.21-13.8Q956.21-9.35 958.48-6.93 960.76-4.5 964.21-4.5L964.21-4.5ZM989.85-23.55Q991.1-25.65 993.18-26.83 995.25-28 998.1-28L998.1-28 998.1-22.1 996.65-22.1Q993.3-22.1 991.58-20.4 989.85-18.7 989.85-14.5L989.85-14.5 989.85 0 984.15 0 984.15-27.55 989.85-27.55 989.85-23.55ZM1009.05-23.55Q1010.3-25.65 1012.38-26.83 1014.45-28 1017.3-28L1017.3-28 1017.3-22.1 1015.85-22.1Q1012.5-22.1 1010.78-20.4 1009.05-18.7 1009.05-14.5L1009.05-14.5 1009.05 0 1003.35 0 1003.35-27.55 1009.05-27.55 1009.05-23.55ZM1034.5 0.45Q1030.6 0.45 1027.45-1.33 1024.3-3.1 1022.5-6.33 1020.7-9.55 1020.7-13.8L1020.7-13.8Q1020.7-18 1022.55-21.25 1024.4-24.5 1027.6-26.25 1030.8-28 1034.75-28L1034.75-28Q1038.7-28 1041.9-26.25 1045.1-24.5 1046.95-21.25 1048.8-18 1048.8-13.8L1048.8-13.8Q1048.8-9.6 1046.9-6.35 1045-3.1 1041.72-1.33 1038.45 0.45 1034.5 0.45L1034.5 0.45ZM1034.5-4.5Q1036.7-4.5 1038.62-5.55 1040.55-6.6 1041.75-8.7 1042.95-10.8 1042.95-13.8L1042.95-13.8Q1042.95-16.8 1041.8-18.88 1040.65-20.95 1038.75-22 1036.85-23.05 1034.65-23.05L1034.65-23.05Q1032.45-23.05 1030.57-22 1028.7-20.95 1027.6-18.88 1026.5-16.8 1026.5-13.8L1026.5-13.8Q1026.5-9.35 1028.77-6.93 1031.05-4.5 1034.5-4.5L1034.5-4.5ZM1085.85-27.55L1091.45-27.55 1082.9 0 1076.9 0 1071.35-20.35 1065.8 0 1059.8 0 1051.2-27.55 1057-27.55 1062.75-5.4 1068.6-27.55 1074.55-27.55 1080.15-5.5 1085.85-27.55Z" opacity="1" transform="matrix(1,0,0,1,0,0)" fill="#000000" class="slogan-text-1" data-fill-palette-color="secondary" id="text-1"></path></svg></g></svg></g></svg></g></svg></g><g transform="matrix(1,0,0,1,106.96049332625265,0)"><svg viewBox="0 0 181.5990133474947 181.5990133474947" height="181.5990133474947" width="181.5990133474947"><g><svg></svg></g><g id="icon-0"><svg viewBox="0 0 181.5990133474947 181.5990133474947" height="181.5990133474947" width="181.5990133474947"><g><path d="M0 90.8c0-50.147 40.652-90.8 90.8-90.8 50.147 0 90.8 40.652 90.799 90.8 0 50.147-40.652 90.8-90.799 90.799-50.147 0-90.8-40.652-90.8-90.799zM90.8 177.265c47.754 0 86.466-38.712 86.465-86.465 0-47.754-38.712-86.466-86.465-86.466-47.754 0-86.466 38.712-86.466 86.466 0 47.754 38.712 86.466 86.466 86.465z" data-fill-palette-color="tertiary" fill="#000000" stroke="transparent"></path></g><g transform="matrix(1,0,0,1,36.489352397774965,48.70199934126681)"><svg viewBox="0 0 108.62030855194476 84.19501466496106" height="84.19501466496106" width="108.62030855194476"><g><svg xmlns="http://www.w3.org/2000/svg" xmlns:xlink="http://www.w3.org/1999/xlink" version="1.1" x="0" y="0" viewBox="4.823 14.981 90.35499999999999 70.037" enable-background="new 0 0 100 100" xml:space="preserve" height="84.19501466496106" width="108.62030855194476" class="icon-z$-0" data-fill-palette-color="accent" id="z$-0"><path fill="#000000" d="M71.611 14.981c-9.679 0-17.985 5.842-21.614 14.185-3.628-8.343-11.922-14.185-21.601-14.185-13.023 0-23.573 10.553-23.573 23.57 0 7.755 3.807 14.581 9.58 18.876l35.594 27.591 35.601-27.591c5.78-4.295 9.58-11.121 9.58-18.876C95.178 25.535 84.621 14.981 71.611 14.981zM72.329 53.09H59.881l-3.455-9.343L48.84 67.1l-7.623-17.074-0.762 2.175H27.673v-3.558h10.258l2.886-8.241 7.499 16.795 7.892-24.296 6.152 16.631h9.97V53.09z" data-fill-palette-color="accent"></path></svg></g></svg></g></svg></g></svg></g><g></g></svg></g><defs></defs></svg><rect width="351.5954870453649" height="247.2" fill="none" stroke="none" visibility="hidden"></rect></g></svg></g></svg>