<svg xmlns="http://www.w3.org/2000/svg" version="1.1" xmlns:xlink="http://www.w3.org/1999/xlink" xmlns:svgjs="http://svgjs.dev/svgjs" width="1000" height="1000" viewBox="0 0 1000 1000"><rect width="1000" height="1000" fill="#000000"></rect><g transform="matrix(0.7,0,0,0.7,150.29368678721835,263.5915792432306)"><svg viewBox="0 0 365 247" data-background-color="#ffffff" preserveAspectRatio="xMidYMid meet" height="676" width="1000" xmlns="http://www.w3.org/2000/svg" xmlns:xlink="http://www.w3.org/1999/xlink"><g id="tight-bounds" transform="matrix(1,0,0,1,-0.1531366588058347,-0.10000015443355892)"><svg viewBox="0 0 365.30625369783803 247.2" height="247.2" width="365.30625369783803"><g><svg viewBox="0 0 395.52 267.645415347508" height="247.2" width="365.30625369783803"><g transform="matrix(1,0,0,1,0,196.82577239692455)"><svg viewBox="0 0 395.52 70.81964295058347" height="70.81964295058347" width="395.52"><g id="textblocktransform"><svg viewBox="0 0 395.52 70.81964295058347" height="70.81964295058347" width="395.52" id="textblock"><g><rect width="75.54432" height="4.3337757226410165" y="62.94361479568146" fill="#ffffff" data-fill-palette-color="tertiary"></rect><rect width="75.54432" height="4.3337757226410165" y="62.94361479568146" x="319.97568" fill="#ffffff" data-fill-palette-color="tertiary"></rect></g><g><svg viewBox="0 0 395.52 48.056399738705764" height="48.056399738705764" width="395.52"><g transform="matrix(1,0,0,1,0,0)"><svg width="395.52" viewBox="0.9200000166893005 -31.610000610351562 263.9164733886719 32.06999969482422" height="48.056399738705764" data-palette-color="#729343"><path d="M4.71-30.11L14.31-3.33 14.31-3.33 23.68-30Q24.31-31.38 25.52-31.38L25.52-31.38Q26.21-31.38 26.67-31.03L26.67-31.03Q27.36-30.46 27.36-29.66L27.36-29.66 27.36-29.43Q27.36-29.31 27.24-29.08L27.24-29.08 17.41-2.3Q16.72 0 14.14 0L14.14 0Q11.84 0 11.03-2.3L11.03-2.3 1.03-28.97Q0.92-29.31 0.92-29.6 0.92-29.89 1.09-30.23 1.26-30.57 1.55-30.86L1.55-30.86Q2.18-31.38 2.87-31.38L2.87-31.38Q4.31-31.38 4.71-30.11L4.71-30.11ZM32.87-1.9L32.87-29.48Q32.87-30.69 34.02-31.21L34.02-31.21Q34.37-31.26 35-31.32 35.63-31.38 36.18-30.92 36.72-30.46 36.72-29.48L36.72-29.48 36.72-1.9Q36.72-0.52 35.51-0.11L35.51-0.11Q35.17 0 34.6 0 34.02 0 33.45-0.46 32.87-0.92 32.87-1.9L32.87-1.9ZM52.01-28.1L43.44-28.1Q42.58-28.1 42.18-28.62 41.78-29.14 41.78-29.74 41.78-30.34 42.18-30.86 42.58-31.38 43.44-31.38L43.44-31.38 64.42-31.38Q65.22-31.38 65.63-30.86 66.03-30.34 66.03-29.74 66.03-29.14 65.6-28.62 65.17-28.1 64.42-28.1L64.42-28.1 55.91-28.1 55.91-1.9Q55.91-0.57 54.77-0.11L54.77-0.11Q54.42 0 53.85 0 53.27 0 52.64-0.46 52.01-0.92 52.01-1.9L52.01-1.9 52.01-28.1ZM85.39-27.93L95.97-2.41Q96.03-2.07 96.03-1.72 96.03-1.38 95.85-1.03 95.68-0.69 95.39-0.52L95.39-0.52Q94.82 0 94.13 0L94.13 0Q92.75 0 92.29-1.21L92.29-1.21 89.48-8.16 73.96-8.16 71.2-1.21Q70.8 0 69.59 0 68.38 0 67.75-1.03L67.75-1.03Q67.58-1.38 67.58-1.67 67.58-1.95 67.75-2.41L67.75-2.41 78.15-27.93Q79.3-30.8 80.8-31.21L80.8-31.21Q81.2-31.26 81.83-31.38L81.83-31.38Q82.98-31.38 83.56-30.86L83.56-30.86Q84.48-30.17 85.39-27.93L85.39-27.93ZM81.72-28.1L75.05-11.21 88.44-11.21 81.72-28.1ZM119.47 0L103.38 0Q102.06 0 101.54-1.15L101.54-1.15Q101.37-1.49 101.37-1.9L101.37-1.9 101.37-29.48Q101.37-30.8 102.58-31.21L102.58-31.21Q102.92-31.26 103.5-31.32 104.07-31.38 104.65-30.92 105.22-30.46 105.22-29.48L105.22-29.48 105.22-3.22 119.47-3.22Q120.33-3.22 120.71-2.73 121.08-2.24 121.08-1.64 121.08-1.03 120.68-0.52 120.28 0 119.47 0L119.47 0ZM133.03-28.1L124.47-28.1Q123.61-28.1 123.21-28.62 122.8-29.14 122.8-29.74 122.8-30.34 123.21-30.86 123.61-31.38 124.47-31.38L124.47-31.38 145.45-31.38Q146.25-31.38 146.65-30.86 147.06-30.34 147.06-29.74 147.06-29.14 146.63-28.62 146.19-28.1 145.45-28.1L145.45-28.1 136.94-28.1 136.94-1.9Q136.94-0.57 135.79-0.11L135.79-0.11Q135.45 0 134.87 0 134.3 0 133.67-0.46 133.03-0.92 133.03-1.9L133.03-1.9 133.03-28.1ZM151.94-1.9L151.94-29.43Q151.94-30.57 153.2-31.21L153.2-31.21Q153.55-31.38 153.95-31.38L153.95-31.38 163.32-31.38Q170.9-31.38 173.55-27.36L173.55-27.36Q174.47-25.69 174.47-23.13 174.47-20.57 172.8-18.79 171.13-17.01 168.03-16.38L168.03-16.38 168.03-16.21Q171.02-15.69 172.28-13.97L172.28-13.97Q173.26-12.53 173.52-10.11 173.78-7.7 173.95-6.32L173.95-6.32Q174.12-4.31 174.3-1.9L174.3-1.9Q174.3-0.92 173.69-0.46 173.09 0 172.34 0 171.59 0 171.02-0.43 170.44-0.86 170.33-1.72L170.33-1.72Q170.1-4.37 169.93-6.41 169.76-8.45 169.53-9.86 169.3-11.26 168.89-12.18 168.49-13.1 167.8-13.62L167.8-13.62Q166.65-14.48 163.26-14.6L163.26-14.6 155.85-14.6 155.85-1.9Q155.85-0.52 154.64-0.11L154.64-0.11Q154.3 0 153.75 0 153.2 0 152.57-0.46 151.94-0.92 151.94-1.9L151.94-1.9ZM155.85-17.59L161.59-17.59Q167.05-17.59 168.95-19.31L168.95-19.31Q170.33-20.52 170.44-22.93L170.44-22.93Q170.44-26.32 167.92-27.41L167.92-27.41Q166.54-28.1 165.16-28.19 163.78-28.28 162.97-28.28L162.97-28.28 155.85-28.28 155.85-17.59ZM196.76-27.93L207.34-2.41Q207.4-2.07 207.4-1.72 207.4-1.38 207.22-1.03 207.05-0.69 206.76-0.52L206.76-0.52Q206.19 0 205.5 0L205.5 0Q204.12 0 203.66-1.21L203.66-1.21 200.84-8.16 185.33-8.16 182.57-1.21Q182.17 0 180.96 0 179.75 0 179.12-1.03L179.12-1.03Q178.95-1.38 178.95-1.67 178.95-1.95 179.12-2.41L179.12-2.41 189.52-27.93Q190.67-30.8 192.17-31.21L192.17-31.21Q192.57-31.26 193.2-31.38L193.2-31.38Q194.35-31.38 194.93-30.86L194.93-30.86Q195.84-30.17 196.76-27.93L196.76-27.93ZM193.09-28.1L186.42-11.21 199.81-11.21 193.09-28.1ZM211.01-15.52L211.01-15.52Q211.01-18.51 211.88-21.55 212.74-24.6 214.52-26.78L214.52-26.78Q218.31-31.61 225.32-31.61L225.32-31.61Q229.35-31.61 233.14-29.83L233.14-29.83Q234.12-29.43 234.12-28.51L234.12-28.51Q234.12-26.78 232.74-26.72L232.74-26.72Q232.45-26.72 232.22-26.78L232.22-26.78Q228.26-28.16 225.93-28.16 223.6-28.16 222.05-27.64 220.5-27.13 219.35-26.21 218.2-25.29 217.39-24.08 216.59-22.87 216.13-21.38L216.13-21.38Q215.15-18.62 215.15-15.52L215.15-15.52Q215.15-10.46 217.39-7.01L217.39-7.01Q220.04-2.93 225.55-2.93L225.55-2.93Q229.35-2.93 232.8-4.94L232.8-4.94Q233.26-5.06 233.69-5.06 234.12-5.06 234.49-4.66 234.87-4.25 234.87-3.62 234.87-2.99 234.41-2.44 233.95-1.9 233.17-1.47 232.39-1.03 231.45-0.69 230.5-0.34 229.46-0.11L229.46-0.11Q227.28 0.46 225.32 0.46L225.32 0.46Q218.26 0.46 214.52-4.31L214.52-4.31Q211.01-8.62 211.01-15.52ZM247.16-16.09L247.16-1.84Q247.16-0.92 246.7-0.57L246.7-0.57Q246.01 0 245.15 0L245.15 0Q243.94 0 243.48-1.03L243.48-1.03Q243.37-1.38 243.37-1.84L243.37-1.84 243.37-29.48Q243.37-30.46 243.94-30.92 244.52-31.38 245.03-31.38 245.55-31.38 245.9-31.26 246.24-31.15 246.53-30.86L246.53-30.86Q247.16-30.34 247.16-29.48L247.16-29.48 247.16-17.47 260.38-30.69Q261.01-31.38 261.73-31.38 262.45-31.38 262.97-30.92 263.48-30.46 263.48-29.8 263.48-29.14 263.14-28.62L263.14-28.62 251.3-17.13 264.29-2.99Q265.44-1.55 264.17-0.52L264.17-0.52Q263.48 0 262.79 0L262.79 0Q261.87 0 261.36-0.8L261.36-0.8 247.16-16.09Z" opacity="1" transform="matrix(1,0,0,1,0,0)" fill="#ffffff" class="wordmark-text-0" data-fill-palette-color="primary" id="text-0"></path></svg></g></svg></g><g transform="matrix(1,0,0,1,75.54432,59.40136236342047)"><svg viewBox="0 0 244.43135999999998 11.418280587163004" height="11.418280587163004" width="244.43135999999998"><g transform="matrix(1,0,0,1,8,0)"><svg width="228.43135999999998" viewBox="1.9500000476837158 -38.5 1042.2000732421875 52.099998474121094" height="11.418280587163004" data-palette-color="#729343"><path d="M1.95-34.75L26.2-34.75 26.2-30.1 16.95-30.1 16.95 0 11.25 0 11.25-30.1 1.95-30.1 1.95-34.75ZM37.65-23.55Q38.9-25.65 40.97-26.83 43.05-28 45.9-28L45.9-28 45.9-22.1 44.45-22.1Q41.1-22.1 39.37-20.4 37.65-18.7 37.65-14.5L37.65-14.5 37.65 0 31.95 0 31.95-27.55 37.65-27.55 37.65-23.55ZM49.25-13.9Q49.25-18.05 50.97-21.25 52.7-24.45 55.67-26.23 58.65-28 62.25-28L62.25-28Q65.5-28 67.92-26.73 70.35-25.45 71.8-23.55L71.8-23.55 71.8-27.55 77.55-27.55 77.55 0 71.8 0 71.8-4.1Q70.35-2.15 67.85-0.85 65.35 0.45 62.15 0.45L62.15 0.45Q58.6 0.45 55.65-1.38 52.7-3.2 50.97-6.48 49.25-9.75 49.25-13.9L49.25-13.9ZM71.8-13.8Q71.8-16.65 70.62-18.75 69.45-20.85 67.55-21.95 65.65-23.05 63.45-23.05L63.45-23.05Q61.25-23.05 59.35-21.98 57.45-20.9 56.27-18.82 55.1-16.75 55.1-13.9L55.1-13.9Q55.1-11.05 56.27-8.9 57.45-6.75 59.37-5.63 61.3-4.5 63.45-4.5L63.45-4.5Q65.65-4.5 67.55-5.6 69.45-6.7 70.62-8.83 71.8-10.95 71.8-13.8L71.8-13.8ZM83.14-13.8Q83.14-18.05 84.87-21.28 86.59-24.5 89.64-26.25 92.69-28 96.64-28L96.64-28Q101.64-28 104.92-25.63 108.19-23.25 109.34-18.85L109.34-18.85 103.19-18.85Q102.44-20.9 100.79-22.05 99.14-23.2 96.64-23.2L96.64-23.2Q93.14-23.2 91.07-20.73 88.99-18.25 88.99-13.8L88.99-13.8Q88.99-9.35 91.07-6.85 93.14-4.35 96.64-4.35L96.64-4.35Q101.59-4.35 103.19-8.7L103.19-8.7 109.34-8.7Q108.14-4.5 104.84-2.02 101.54 0.45 96.64 0.45L96.64 0.45Q92.69 0.45 89.64-1.33 86.59-3.1 84.87-6.33 83.14-9.55 83.14-13.8L83.14-13.8ZM138.64-27.55L125.94-13.75 138.64 0 130.94 0 120.74-11.85 120.74 0 115.04 0 115.04-37 120.74-37 120.74-15.5 130.74-27.55 138.64-27.55ZM145.64-31.2Q144.09-31.2 143.04-32.25 141.99-33.3 141.99-34.85L141.99-34.85Q141.99-36.4 143.04-37.45 144.09-38.5 145.64-38.5L145.64-38.5Q147.14-38.5 148.19-37.45 149.24-36.4 149.24-34.85L149.24-34.85Q149.24-33.3 148.19-32.25 147.14-31.2 145.64-31.2L145.64-31.2ZM142.74-27.55L148.44-27.55 148.44 0 142.74 0 142.74-27.55ZM169.84-28Q173.09-28 175.66-26.65 178.24-25.3 179.69-22.65 181.13-20 181.13-16.25L181.13-16.25 181.13 0 175.49 0 175.49-15.4Q175.49-19.1 173.63-21.08 171.78-23.05 168.59-23.05L168.59-23.05Q165.38-23.05 163.51-21.08 161.63-19.1 161.63-15.4L161.63-15.4 161.63 0 155.94 0 155.94-27.55 161.63-27.55 161.63-24.4Q163.03-26.1 165.21-27.05 167.38-28 169.84-28L169.84-28ZM199.48-28Q202.68-28 205.16-26.73 207.63-25.45 209.03-23.55L209.03-23.55 209.03-27.55 214.78-27.55 214.78 0.45Q214.78 4.25 213.18 7.23 211.58 10.2 208.56 11.9 205.53 13.6 201.33 13.6L201.33 13.6Q195.73 13.6 192.03 10.98 188.33 8.35 187.83 3.85L187.83 3.85 193.48 3.85Q194.13 6 196.26 7.33 198.38 8.65 201.33 8.65L201.33 8.65Q204.78 8.65 206.91 6.55 209.03 4.45 209.03 0.45L209.03 0.45 209.03-4.15Q207.58-2.2 205.11-0.88 202.63 0.45 199.48 0.45L199.48 0.45Q195.88 0.45 192.91-1.38 189.93-3.2 188.21-6.48 186.48-9.75 186.48-13.9L186.48-13.9Q186.48-18.05 188.21-21.25 189.93-24.45 192.91-26.23 195.88-28 199.48-28L199.48-28ZM209.03-13.8Q209.03-16.65 207.86-18.75 206.68-20.85 204.78-21.95 202.88-23.05 200.68-23.05L200.68-23.05Q198.48-23.05 196.58-21.98 194.68-20.9 193.51-18.82 192.33-16.75 192.33-13.9L192.33-13.9Q192.33-11.05 193.51-8.9 194.68-6.75 196.61-5.63 198.53-4.5 200.68-4.5L200.68-4.5Q202.88-4.5 204.78-5.6 206.68-6.7 207.86-8.83 209.03-10.95 209.03-13.8L209.03-13.8ZM274.43-34.75L280.53-34.75 270.23 0 263.78 0 256.48-26.3 248.73 0 242.33 0.05 232.48-34.75 238.53-34.75 245.73-6.45 253.53-34.75 259.93-34.75 267.18-6.6 274.43-34.75ZM310.48-14.45Q310.48-12.9 310.28-11.65L310.28-11.65 289.23-11.65Q289.48-8.35 291.68-6.35 293.88-4.35 297.08-4.35L297.08-4.35Q301.68-4.35 303.58-8.2L303.58-8.2 309.73-8.2Q308.48-4.4 305.2-1.98 301.93 0.45 297.08 0.45L297.08 0.45Q293.13 0.45 290-1.33 286.88-3.1 285.1-6.33 283.33-9.55 283.33-13.8L283.33-13.8Q283.33-18.05 285.05-21.28 286.78-24.5 289.9-26.25 293.03-28 297.08-28L297.08-28Q300.98-28 304.03-26.3 307.08-24.6 308.78-21.53 310.48-18.45 310.48-14.45L310.48-14.45ZM289.28-16.25L304.53-16.25Q304.48-19.4 302.28-21.3 300.08-23.2 296.83-23.2L296.83-23.2Q293.88-23.2 291.78-21.33 289.68-19.45 289.28-16.25L289.28-16.25ZM316.07-37L321.77-37 321.77 0 316.07 0 316.07-37ZM329.27-37L334.97-37 334.97 0 329.27 0 329.27-37ZM356.37-28Q359.62-28 362.19-26.65 364.77-25.3 366.22-22.65 367.67-20 367.67-16.25L367.67-16.25 367.67 0 362.02 0 362.02-15.4Q362.02-19.1 360.17-21.08 358.32-23.05 355.12-23.05L355.12-23.05Q351.92-23.05 350.04-21.08 348.17-19.1 348.17-15.4L348.17-15.4 348.17 0 342.47 0 342.47-27.55 348.17-27.55 348.17-24.4Q349.57-26.1 351.74-27.05 353.92-28 356.37-28L356.37-28ZM400.17-14.45Q400.17-12.9 399.97-11.65L399.97-11.65 378.92-11.65Q379.17-8.35 381.37-6.35 383.56-4.35 386.77-4.35L386.77-4.35Q391.37-4.35 393.27-8.2L393.27-8.2 399.42-8.2Q398.17-4.4 394.89-1.98 391.62 0.45 386.77 0.45L386.77 0.45Q382.81 0.45 379.69-1.33 376.56-3.1 374.79-6.33 373.02-9.55 373.02-13.8L373.02-13.8Q373.02-18.05 374.74-21.28 376.47-24.5 379.59-26.25 382.72-28 386.77-28L386.77-28Q390.67-28 393.72-26.3 396.77-24.6 398.47-21.53 400.17-18.45 400.17-14.45L400.17-14.45ZM378.97-16.25L394.22-16.25Q394.17-19.4 391.97-21.3 389.77-23.2 386.52-23.2L386.52-23.2Q383.56-23.2 381.47-21.33 379.37-19.45 378.97-16.25L378.97-16.25ZM415.76 0.45Q412.51 0.45 409.94-0.73 407.36-1.9 405.86-3.93 404.36-5.95 404.26-8.45L404.26-8.45 410.16-8.45Q410.31-6.7 411.84-5.53 413.36-4.35 415.66-4.35L415.66-4.35Q418.06-4.35 419.39-5.28 420.71-6.2 420.71-7.65L420.71-7.65Q420.71-9.2 419.24-9.95 417.76-10.7 414.56-11.6L414.56-11.6Q411.46-12.45 409.51-13.25 407.56-14.05 406.14-15.7 404.71-17.35 404.71-20.05L404.71-20.05Q404.71-22.25 406.01-24.08 407.31-25.9 409.74-26.95 412.16-28 415.31-28L415.31-28Q420.01-28 422.89-25.63 425.76-23.25 425.96-19.15L425.96-19.15 420.26-19.15Q420.11-21 418.76-22.1 417.41-23.2 415.11-23.2L415.11-23.2Q412.86-23.2 411.66-22.35 410.46-21.5 410.46-20.1L410.46-20.1Q410.46-19 411.26-18.25 412.06-17.5 413.21-17.07 414.36-16.65 416.61-16L416.61-16Q419.61-15.2 421.54-14.38 423.46-13.55 424.86-11.95 426.26-10.35 426.31-7.7L426.31-7.7Q426.31-5.35 425.01-3.5 423.71-1.65 421.34-0.6 418.96 0.45 415.76 0.45L415.76 0.45ZM442.46 0.45Q439.21 0.45 436.64-0.73 434.06-1.9 432.56-3.93 431.06-5.95 430.96-8.45L430.96-8.45 436.86-8.45Q437.01-6.7 438.54-5.53 440.06-4.35 442.36-4.35L442.36-4.35Q444.76-4.35 446.09-5.28 447.41-6.2 447.41-7.65L447.41-7.65Q447.41-9.2 445.94-9.95 444.46-10.7 441.26-11.6L441.26-11.6Q438.16-12.45 436.21-13.25 434.26-14.05 432.84-15.7 431.41-17.35 431.41-20.05L431.41-20.05Q431.41-22.25 432.71-24.08 434.01-25.9 436.44-26.95 438.86-28 442.01-28L442.01-28Q446.71-28 449.59-25.63 452.46-23.25 452.66-19.15L452.66-19.15 446.96-19.15Q446.81-21 445.46-22.1 444.11-23.2 441.81-23.2L441.81-23.2Q439.56-23.2 438.36-22.35 437.16-21.5 437.16-20.1L437.16-20.1Q437.16-19 437.96-18.25 438.76-17.5 439.91-17.07 441.06-16.65 443.31-16L443.31-16Q446.31-15.2 448.24-14.38 450.16-13.55 451.56-11.95 452.96-10.35 453.01-7.7L453.01-7.7Q453.01-5.35 451.71-3.5 450.41-1.65 448.04-0.6 445.66 0.45 442.46 0.45L442.46 0.45ZM459.21-6.85L465.41-6.85 459.36 6.95 455.66 6.95 459.21-6.85ZM483.4-34.75L489.1-34.75 489.1 0 483.4 0 483.4-34.75ZM510.5-28Q513.75-28 516.33-26.65 518.9-25.3 520.35-22.65 521.8-20 521.8-16.25L521.8-16.25 521.8 0 516.15 0 516.15-15.4Q516.15-19.1 514.3-21.08 512.45-23.05 509.25-23.05L509.25-23.05Q506.05-23.05 504.18-21.08 502.3-19.1 502.3-15.4L502.3-15.4 502.3 0 496.6 0 496.6-27.55 502.3-27.55 502.3-24.4Q503.7-26.1 505.88-27.05 508.05-28 510.5-28L510.5-28ZM539.05 0.45Q535.8 0.45 533.22-0.73 530.65-1.9 529.15-3.93 527.65-5.95 527.55-8.45L527.55-8.45 533.45-8.45Q533.6-6.7 535.12-5.53 536.65-4.35 538.95-4.35L538.95-4.35Q541.35-4.35 542.67-5.28 544-6.2 544-7.65L544-7.65Q544-9.2 542.52-9.95 541.05-10.7 537.85-11.6L537.85-11.6Q534.75-12.45 532.8-13.25 530.85-14.05 529.42-15.7 528-17.35 528-20.05L528-20.05Q528-22.25 529.3-24.08 530.6-25.9 533.02-26.95 535.45-28 538.6-28L538.6-28Q543.3-28 546.17-25.63 549.05-23.25 549.25-19.15L549.25-19.15 543.55-19.15Q543.4-21 542.05-22.1 540.7-23.2 538.4-23.2L538.4-23.2Q536.15-23.2 534.95-22.35 533.75-21.5 533.75-20.1L533.75-20.1Q533.75-19 534.55-18.25 535.35-17.5 536.5-17.07 537.65-16.65 539.9-16L539.9-16Q542.9-15.2 544.82-14.38 546.75-13.55 548.15-11.95 549.55-10.35 549.6-7.7L549.6-7.7Q549.6-5.35 548.3-3.5 547-1.65 544.62-0.6 542.25 0.45 539.05 0.45L539.05 0.45ZM561.45-23.5Q562.89-25.4 565.39-26.7 567.89-28 571.04-28L571.04-28Q574.64-28 577.62-26.23 580.6-24.45 582.29-21.25 584-18.05 584-13.9L584-13.9Q584-9.75 582.29-6.48 580.6-3.2 577.62-1.38 574.64 0.45 571.04 0.45L571.04 0.45Q567.89 0.45 565.45-0.83 563-2.1 561.45-4L561.45-4 561.45 13.1 555.75 13.1 555.75-27.55 561.45-27.55 561.45-23.5ZM578.2-13.9Q578.2-16.75 577.02-18.82 575.85-20.9 573.92-21.98 572-23.05 569.79-23.05L569.79-23.05Q567.64-23.05 565.72-21.95 563.79-20.85 562.62-18.75 561.45-16.65 561.45-13.8L561.45-13.8Q561.45-10.95 562.62-8.83 563.79-6.7 565.72-5.6 567.64-4.5 569.79-4.5L569.79-4.5Q572-4.5 573.92-5.63 575.85-6.75 577.02-8.9 578.2-11.05 578.2-13.9L578.2-13.9ZM592.54-31.2Q590.99-31.2 589.94-32.25 588.89-33.3 588.89-34.85L588.89-34.85Q588.89-36.4 589.94-37.45 590.99-38.5 592.54-38.5L592.54-38.5Q594.04-38.5 595.09-37.45 596.14-36.4 596.14-34.85L596.14-34.85Q596.14-33.3 595.09-32.25 594.04-31.2 592.54-31.2L592.54-31.2ZM589.64-27.55L595.34-27.55 595.34 0 589.64 0 589.64-27.55ZM608.54-23.55Q609.79-25.65 611.86-26.83 613.94-28 616.79-28L616.79-28 616.79-22.1 615.34-22.1Q611.99-22.1 610.26-20.4 608.54-18.7 608.54-14.5L608.54-14.5 608.54 0 602.84 0 602.84-27.55 608.54-27.55 608.54-23.55ZM624.94-31.2Q623.39-31.2 622.34-32.25 621.29-33.3 621.29-34.85L621.29-34.85Q621.29-36.4 622.34-37.45 623.39-38.5 624.94-38.5L624.94-38.5Q626.44-38.5 627.49-37.45 628.54-36.4 628.54-34.85L628.54-34.85Q628.54-33.3 627.49-32.25 626.44-31.2 624.94-31.2L624.94-31.2ZM622.04-27.55L627.74-27.55 627.74 0 622.04 0 622.04-27.55ZM649.13-28Q652.38-28 654.96-26.65 657.53-25.3 658.98-22.65 660.43-20 660.43-16.25L660.43-16.25 660.43 0 654.78 0 654.78-15.4Q654.78-19.1 652.93-21.08 651.08-23.05 647.88-23.05L647.88-23.05Q644.68-23.05 642.81-21.08 640.93-19.1 640.93-15.4L640.93-15.4 640.93 0 635.23 0 635.23-27.55 640.93-27.55 640.93-24.4Q642.33-26.1 644.51-27.05 646.68-28 649.13-28L649.13-28ZM678.78-28Q681.98-28 684.46-26.73 686.93-25.45 688.33-23.55L688.33-23.55 688.33-27.55 694.08-27.55 694.08 0.45Q694.08 4.25 692.48 7.23 690.88 10.2 687.86 11.9 684.83 13.6 680.63 13.6L680.63 13.6Q675.03 13.6 671.33 10.98 667.63 8.35 667.13 3.85L667.13 3.85 672.78 3.85Q673.43 6 675.56 7.33 677.68 8.65 680.63 8.65L680.63 8.65Q684.08 8.65 686.21 6.55 688.33 4.45 688.33 0.45L688.33 0.45 688.33-4.15Q686.88-2.2 684.41-0.88 681.93 0.45 678.78 0.45L678.78 0.45Q675.18 0.45 672.21-1.38 669.23-3.2 667.51-6.48 665.78-9.75 665.78-13.9L665.78-13.9Q665.78-18.05 667.51-21.25 669.23-24.45 672.21-26.23 675.18-28 678.78-28L678.78-28ZM688.33-13.8Q688.33-16.65 687.16-18.75 685.98-20.85 684.08-21.95 682.18-23.05 679.98-23.05L679.98-23.05Q677.78-23.05 675.88-21.98 673.98-20.9 672.81-18.82 671.63-16.75 671.63-13.9L671.63-13.9Q671.63-11.05 672.81-8.9 673.98-6.75 675.91-5.63 677.83-4.5 679.98-4.5L679.98-4.5Q682.18-4.5 684.08-5.6 685.98-6.7 687.16-8.83 688.33-10.95 688.33-13.8L688.33-13.8ZM738.03 0L735.53-7.1 720.98-7.1 718.48 0 712.53 0 724.98-34.8 731.58-34.8 744.03 0 738.03 0ZM722.58-11.75L733.93-11.75 728.28-27.9 722.58-11.75ZM747.52-13.8Q747.52-18.05 749.25-21.28 750.97-24.5 754.02-26.25 757.07-28 761.02-28L761.02-28Q766.02-28 769.3-25.63 772.57-23.25 773.72-18.85L773.72-18.85 767.57-18.85Q766.82-20.9 765.17-22.05 763.52-23.2 761.02-23.2L761.02-23.2Q757.52-23.2 755.45-20.73 753.37-18.25 753.37-13.8L753.37-13.8Q753.37-9.35 755.45-6.85 757.52-4.35 761.02-4.35L761.02-4.35Q765.97-4.35 767.57-8.7L767.57-8.7 773.72-8.7Q772.52-4.5 769.22-2.02 765.92 0.45 761.02 0.45L761.02 0.45Q757.07 0.45 754.02-1.33 750.97-3.1 749.25-6.33 747.52-9.55 747.52-13.8L747.52-13.8ZM793.67-28Q796.82-28 799.3-26.65 801.77-25.3 803.2-22.65 804.62-20 804.62-16.25L804.62-16.25 804.62 0 798.97 0 798.97-15.4Q798.97-19.1 797.12-21.08 795.27-23.05 792.07-23.05L792.07-23.05Q788.87-23.05 787-21.08 785.12-19.1 785.12-15.4L785.12-15.4 785.12 0 779.42 0 779.42-37 785.12-37 785.12-24.35Q786.57-26.1 788.8-27.05 791.02-28 793.67-28L793.67-28ZM814.77-31.2Q813.22-31.2 812.17-32.25 811.12-33.3 811.12-34.85L811.12-34.85Q811.12-36.4 812.17-37.45 813.22-38.5 814.77-38.5L814.77-38.5Q816.27-38.5 817.32-37.45 818.37-36.4 818.37-34.85L818.37-34.85Q818.37-33.3 817.32-32.25 816.27-31.2 814.77-31.2L814.77-31.2ZM811.87-27.55L817.57-27.55 817.57 0 811.87 0 811.87-27.55ZM850.32-14.45Q850.32-12.9 850.12-11.65L850.12-11.65 829.07-11.65Q829.32-8.35 831.52-6.35 833.72-4.35 836.92-4.35L836.92-4.35Q841.52-4.35 843.42-8.2L843.42-8.2 849.57-8.2Q848.32-4.4 845.04-1.98 841.77 0.45 836.92 0.45L836.92 0.45Q832.97 0.45 829.84-1.33 826.72-3.1 824.94-6.33 823.17-9.55 823.17-13.8L823.17-13.8Q823.17-18.05 824.89-21.28 826.62-24.5 829.74-26.25 832.87-28 836.92-28L836.92-28Q840.82-28 843.87-26.3 846.92-24.6 848.62-21.53 850.32-18.45 850.32-14.45L850.32-14.45ZM829.12-16.25L844.37-16.25Q844.32-19.4 842.12-21.3 839.92-23.2 836.67-23.2L836.67-23.2Q833.72-23.2 831.62-21.33 829.52-19.45 829.12-16.25L829.12-16.25ZM858.76-27.55L866.56-5.1 874.36-27.55 880.41-27.55 869.91 0 863.11 0 852.66-27.55 858.76-27.55ZM909.96-14.45Q909.96-12.9 909.76-11.65L909.76-11.65 888.71-11.65Q888.96-8.35 891.16-6.35 893.36-4.35 896.56-4.35L896.56-4.35Q901.16-4.35 903.06-8.2L903.06-8.2 909.21-8.2Q907.96-4.4 904.69-1.98 901.41 0.45 896.56 0.45L896.56 0.45Q892.61 0.45 889.49-1.33 886.36-3.1 884.59-6.33 882.81-9.55 882.81-13.8L882.81-13.8Q882.81-18.05 884.54-21.28 886.26-24.5 889.39-26.25 892.51-28 896.56-28L896.56-28Q900.46-28 903.51-26.3 906.56-24.6 908.26-21.53 909.96-18.45 909.96-14.45L909.96-14.45ZM888.76-16.25L904.01-16.25Q903.96-19.4 901.76-21.3 899.56-23.2 896.31-23.2L896.31-23.2Q893.36-23.2 891.26-21.33 889.16-19.45 888.76-16.25L888.76-16.25ZM948.91-28Q952.16-28 954.73-26.65 957.31-25.3 958.78-22.65 960.26-20 960.26-16.25L960.26-16.25 960.26 0 954.61 0 954.61-15.4Q954.61-19.1 952.76-21.08 950.91-23.05 947.71-23.05L947.71-23.05Q944.51-23.05 942.63-21.08 940.76-19.1 940.76-15.4L940.76-15.4 940.76 0 935.11 0 935.11-15.4Q935.11-19.1 933.26-21.08 931.41-23.05 928.21-23.05L928.21-23.05Q925.01-23.05 923.13-21.08 921.26-19.1 921.26-15.4L921.26-15.4 921.26 0 915.56 0 915.56-27.55 921.26-27.55 921.26-24.4Q922.66-26.1 924.81-27.05 926.96-28 929.41-28L929.41-28Q932.71-28 935.31-26.6 937.91-25.2 939.31-22.55L939.31-22.55Q940.56-25.05 943.21-26.53 945.86-28 948.91-28L948.91-28ZM992.76-14.45Q992.76-12.9 992.56-11.65L992.56-11.65 971.51-11.65Q971.76-8.35 973.96-6.35 976.16-4.35 979.36-4.35L979.36-4.35Q983.96-4.35 985.86-8.2L985.86-8.2 992.01-8.2Q990.76-4.4 987.48-1.98 984.21 0.45 979.36 0.45L979.36 0.45Q975.41 0.45 972.28-1.33 969.16-3.1 967.38-6.33 965.61-9.55 965.61-13.8L965.61-13.8Q965.61-18.05 967.33-21.28 969.06-24.5 972.18-26.25 975.31-28 979.36-28L979.36-28Q983.26-28 986.31-26.3 989.36-24.6 991.06-21.53 992.76-18.45 992.76-14.45L992.76-14.45ZM971.56-16.25L986.81-16.25Q986.76-19.4 984.56-21.3 982.36-23.2 979.11-23.2L979.11-23.2Q976.16-23.2 974.06-21.33 971.96-19.45 971.56-16.25L971.56-16.25ZM1012.25-28Q1015.5-28 1018.08-26.65 1020.65-25.3 1022.1-22.65 1023.55-20 1023.55-16.25L1023.55-16.25 1023.55 0 1017.9 0 1017.9-15.4Q1017.9-19.1 1016.05-21.08 1014.2-23.05 1011-23.05L1011-23.05Q1007.8-23.05 1005.93-21.08 1004.05-19.1 1004.05-15.4L1004.05-15.4 1004.05 0 998.35 0 998.35-27.55 1004.05-27.55 1004.05-24.4Q1005.45-26.1 1007.63-27.05 1009.8-28 1012.25-28L1012.25-28ZM1044.15-22.9L1037.45-22.9 1037.45-7.65Q1037.45-6.1 1038.18-5.43 1038.9-4.75 1040.65-4.75L1040.65-4.75 1044.15-4.75 1044.15 0 1039.65 0Q1035.8 0 1033.75-1.8 1031.7-3.6 1031.7-7.65L1031.7-7.65 1031.7-22.9 1028.45-22.9 1028.45-27.55 1031.7-27.55 1031.7-34.4 1037.45-34.4 1037.45-27.55 1044.15-27.55 1044.15-22.9Z" opacity="1" transform="matrix(1,0,0,1,0,0)" fill="#ffffff" class="slogan-text-1" data-fill-palette-color="secondary" id="text-1"></path></svg></g></svg></g></svg></g></svg></g><g transform="matrix(1,0,0,1,110.69207642625241,0)"><svg viewBox="0 0 174.13584714749516 174.13584714749516" height="174.13584714749516" width="174.13584714749516"><g><svg></svg></g><g id="icon-0"><svg viewBox="0 0 174.13584714749516 174.13584714749516" height="174.13584714749516" width="174.13584714749516"><g><path d="M0 87.068c0-48.086 38.982-87.068 87.068-87.068 48.086 0 87.068 38.982 87.068 87.068 0 48.086-38.982 87.068-87.068 87.068-48.086 0-87.068-38.982-87.068-87.068zM87.068 169.802c45.693 0 82.734-37.041 82.734-82.734 0-45.693-37.041-82.734-82.734-82.734-45.693 0-82.734 37.041-82.734 82.734 0 45.693 37.041 82.734 82.734 82.734z" data-fill-palette-color="tertiary" fill="#ffffff" stroke="transparent"></path></g><g transform="matrix(1,0,0,1,35.121132407637916,46.802341067281546)"><svg viewBox="0 0 103.89358233221932 80.53116501293206" height="80.53116501293206" width="103.89358233221932"><g><svg xmlns="http://www.w3.org/2000/svg" xmlns:xlink="http://www.w3.org/1999/xlink" version="1.1" x="0" y="0" viewBox="4.823001861572266 14.980999946594238 90.35501098632812 70.03699493408203" enable-background="new 0 0 100 100" xml:space="preserve" height="80.53116501293206" width="103.89358233221932" class="icon-s-0" data-fill-palette-color="accent" id="s-0"><path fill="#ffffff" d="M71.611 14.981c-9.679 0-17.985 5.842-21.614 14.185-3.628-8.343-11.922-14.185-21.601-14.185-13.023 0-23.573 10.553-23.573 23.57 0 7.755 3.807 14.581 9.58 18.876l35.594 27.591 35.601-27.591c5.78-4.295 9.58-11.121 9.58-18.876C95.178 25.535 84.621 14.981 71.611 14.981zM72.329 53.09H59.881l-3.455-9.343L48.84 67.1l-7.623-17.074-0.762 2.175H27.673v-3.558h10.258l2.886-8.241 7.499 16.795 7.892-24.296 6.152 16.631h9.97V53.09z" data-fill-palette-color="accent"></path></svg></g></svg></g></svg></g></svg></g><g></g></svg></g><defs></defs></svg><rect width="365.30625369783803" height="247.2" fill="none" stroke="none" visibility="hidden"></rect></g></svg></g></svg>